<svg width="44" height="44" viewBox="0 0 44 44" fill="none" xmlns="http://www.w3.org/2000/svg">
<g clip-path="url(#clip0)">
<path d="M23.3281 31.9609H20.1253C19.5903 31.9609 19.1552 31.5258 19.1552 30.9908V23.7667H17.2866C16.7516 23.7667 16.3164 23.3313 16.3164 22.7965V19.701C16.3164 19.166 16.7516 18.7308 17.2866 18.7308H19.1552V17.1807C19.1552 15.6436 19.6378 14.336 20.5507 13.3992C21.4678 12.4582 22.7494 11.9609 24.2569 11.9609L26.6996 11.9649C27.2336 11.9658 27.668 12.401 27.668 12.9351V15.8092C27.668 16.3442 27.233 16.7794 26.6982 16.7794L25.0536 16.78C24.552 16.78 24.4243 16.8805 24.397 16.9113C24.352 16.9625 24.2984 17.107 24.2984 17.506V18.7307H26.5746C26.7459 18.7307 26.912 18.7729 27.0546 18.8526C27.3624 19.0245 27.5537 19.3497 27.5537 19.7011L27.5525 22.7967C27.5525 23.3313 27.1173 23.7665 26.5824 23.7665H24.2984V30.9908C24.2984 31.5258 23.8631 31.9609 23.3281 31.9609ZM20.3276 30.7885H23.1258V23.2418C23.1258 22.8846 23.4165 22.594 23.7735 22.594H26.38L26.3811 19.9033H23.7734C23.4163 19.9033 23.1258 19.6128 23.1258 19.2556V17.506C23.1258 17.0479 23.1723 16.527 23.5181 16.1354C23.9359 15.6621 24.5943 15.6075 25.0533 15.6075L26.4955 15.6069V13.1371L24.256 13.1334C21.8332 13.1334 20.3276 14.6843 20.3276 17.1807V19.2556C20.3276 19.6126 20.0371 19.9033 19.6801 19.9033H17.4889V22.594H19.6801C20.0371 22.594 20.3276 22.8846 20.3276 23.2418V30.7885ZM26.6973 13.1374H26.6974H26.6973Z" fill="black"/>
</g>
<rect x="1" y="1" width="42" height="42" stroke="black" stroke-width="2"/>
<defs>
<clipPath id="clip0">
<rect width="19.9609" height="20" fill="white" transform="translate(12 12)"/>
</clipPath>
</defs>
</svg>
