<svg width="44" height="44" viewBox="0 0 44 44" fill="none" xmlns="http://www.w3.org/2000/svg">
<path d="M26.5862 12H17.4138C14.4286 12 12 14.4286 12 17.4138V26.5863C12 29.5714 14.4286 32 17.4138 32H26.5863C29.5714 32 32 29.5714 32 26.5863V17.4138C32 14.4286 29.5714 12 26.5862 12V12ZM30.8275 26.5863C30.8275 28.9249 28.9249 30.8275 26.5862 30.8275H17.4138C15.0751 30.8275 13.1725 28.9249 13.1725 26.5863V17.4138C13.1725 15.0751 15.0751 13.1725 17.4138 13.1725H26.5863C28.9249 13.1725 30.8275 15.0751 30.8275 17.4138V26.5863Z" fill="black"/>
<path d="M21.9998 16.5314C18.9844 16.5314 16.5312 18.9845 16.5312 22C16.5312 25.0154 18.9844 27.4685 21.9998 27.4685C25.0153 27.4685 27.4684 25.0154 27.4684 22C27.4684 18.9845 25.0153 16.5314 21.9998 16.5314ZM21.9998 26.2961C19.6311 26.2961 17.7037 24.3689 17.7037 22C17.7037 19.6312 19.6311 17.7039 21.9998 17.7039C24.3688 17.7039 26.2959 19.6312 26.2959 22C26.2959 24.3689 24.3688 26.2961 21.9998 26.2961Z" fill="black"/>
<path d="M27.5993 14.5892C26.7082 14.5892 25.9834 15.3142 25.9834 16.2051C25.9834 17.0962 26.7082 17.8212 27.5993 17.8212C28.4904 17.8212 29.2154 17.0962 29.2154 16.2051C29.2154 15.314 28.4904 14.5892 27.5993 14.5892ZM27.5993 16.6486C27.3549 16.6486 27.1559 16.4496 27.1559 16.2051C27.1559 15.9605 27.3549 15.7617 27.5993 15.7617C27.8439 15.7617 28.0429 15.9605 28.0429 16.2051C28.0429 16.4496 27.8439 16.6486 27.5993 16.6486Z" fill="black"/>
<rect x="1" y="1" width="42" height="42" stroke="black" stroke-width="2"/>
</svg>
